<mxfile host="app.diagrams.net" modified="2022-04-13T13:02:44.820Z" agent="5.0 (Windows NT 10.0; Win64; x64) AppleWebKit/537.36 (KHTML, like Gecko) Chrome/100.0.4896.79 Safari/537.36" etag="2n83-kdwQFkjLcdC6vGh" version="17.4.3" type="github">
  <diagram id="KxCZLF1t46evcHAlCOS2" name="Page-1">
    <mxGraphModel dx="944" dy="927" grid="1" gridSize="10" guides="1" tooltips="1" connect="1" arrows="1" fold="1" page="1" pageScale="1" pageWidth="850" pageHeight="1100" math="0" shadow="0">
      <root>
        <mxCell id="0" />
        <mxCell id="1" parent="0" />
        <mxCell id="lsTzPiZq1YOw1p8u2fON-13" value="sm Menu Input" style="shape=umlFrame;whiteSpace=wrap;html=1;width=90;height=30;" vertex="1" parent="1">
          <mxGeometry x="402.5" y="190" width="620" height="760" as="geometry" />
        </mxCell>
        <mxCell id="lsTzPiZq1YOw1p8u2fON-12" style="edgeStyle=orthogonalEdgeStyle;rounded=0;orthogonalLoop=1;jettySize=auto;html=1;entryX=0.251;entryY=0.004;entryDx=0;entryDy=0;entryPerimeter=0;" edge="1" parent="1" source="lsTzPiZq1YOw1p8u2fON-1" target="lsTzPiZq1YOw1p8u2fON-3">
          <mxGeometry relative="1" as="geometry" />
        </mxCell>
        <mxCell id="lsTzPiZq1YOw1p8u2fON-1" value="ATM" style="shape=umlFrame;whiteSpace=wrap;html=1;" vertex="1" parent="1">
          <mxGeometry x="40" y="50" width="180" height="80" as="geometry" />
        </mxCell>
        <mxCell id="lsTzPiZq1YOw1p8u2fON-2" value="Idle" style="rounded=1;whiteSpace=wrap;html=1;absoluteArcSize=1;arcSize=14;strokeWidth=2;" vertex="1" parent="1">
          <mxGeometry x="100" y="75" width="100" height="30" as="geometry" />
        </mxCell>
        <mxCell id="lsTzPiZq1YOw1p8u2fON-3" value="Componenta ATM validare card" style="shape=umlFrame;whiteSpace=wrap;html=1;width=150;height=30;" vertex="1" parent="1">
          <mxGeometry x="50" y="170" width="300" height="330" as="geometry" />
        </mxCell>
        <mxCell id="lsTzPiZq1YOw1p8u2fON-7" value="" style="edgeStyle=orthogonalEdgeStyle;rounded=0;orthogonalLoop=1;jettySize=auto;html=1;" edge="1" parent="1" source="lsTzPiZq1YOw1p8u2fON-4" target="lsTzPiZq1YOw1p8u2fON-6">
          <mxGeometry relative="1" as="geometry" />
        </mxCell>
        <mxCell id="lsTzPiZq1YOw1p8u2fON-4" value="Introducere PIN" style="rounded=1;whiteSpace=wrap;html=1;absoluteArcSize=1;arcSize=14;strokeWidth=2;" vertex="1" parent="1">
          <mxGeometry x="130" y="230" width="90" height="70" as="geometry" />
        </mxCell>
        <mxCell id="lsTzPiZq1YOw1p8u2fON-6" value="PIN ok" style="rhombus;whiteSpace=wrap;html=1;rounded=1;arcSize=14;strokeWidth=2;" vertex="1" parent="1">
          <mxGeometry x="135" y="320" width="80" height="80" as="geometry" />
        </mxCell>
        <mxCell id="lsTzPiZq1YOw1p8u2fON-8" value="No" style="html=1;verticalAlign=bottom;endArrow=block;rounded=0;entryX=1;entryY=0.5;entryDx=0;entryDy=0;" edge="1" parent="1" target="lsTzPiZq1YOw1p8u2fON-4">
          <mxGeometry width="80" relative="1" as="geometry">
            <mxPoint x="215" y="359.58" as="sourcePoint" />
            <mxPoint x="295" y="359.58" as="targetPoint" />
            <Array as="points">
              <mxPoint x="260" y="360" />
              <mxPoint x="260" y="265" />
            </Array>
          </mxGeometry>
        </mxCell>
        <mxCell id="lsTzPiZq1YOw1p8u2fON-9" value="Yes" style="html=1;verticalAlign=bottom;endArrow=block;rounded=0;exitX=0.5;exitY=1;exitDx=0;exitDy=0;entryX=0.5;entryY=0;entryDx=0;entryDy=0;" edge="1" parent="1" source="lsTzPiZq1YOw1p8u2fON-6" target="lsTzPiZq1YOw1p8u2fON-11">
          <mxGeometry x="0.0033" y="5" width="80" relative="1" as="geometry">
            <mxPoint x="170" y="430" as="sourcePoint" />
            <mxPoint x="210" y="450" as="targetPoint" />
            <mxPoint as="offset" />
          </mxGeometry>
        </mxCell>
        <mxCell id="lsTzPiZq1YOw1p8u2fON-11" value="" style="ellipse;html=1;shape=endState;fillColor=#000000;strokeColor=#ff0000;" vertex="1" parent="1">
          <mxGeometry x="160" y="460" width="30" height="30" as="geometry" />
        </mxCell>
        <mxCell id="lsTzPiZq1YOw1p8u2fON-16" value="" style="edgeStyle=orthogonalEdgeStyle;rounded=0;orthogonalLoop=1;jettySize=auto;html=1;" edge="1" parent="1" source="lsTzPiZq1YOw1p8u2fON-14" target="lsTzPiZq1YOw1p8u2fON-15">
          <mxGeometry relative="1" as="geometry" />
        </mxCell>
        <mxCell id="lsTzPiZq1YOw1p8u2fON-14" value="Selectare actiune" style="rounded=1;whiteSpace=wrap;html=1;absoluteArcSize=1;arcSize=14;strokeWidth=2;" vertex="1" parent="1">
          <mxGeometry x="540" y="200" width="100" height="40" as="geometry" />
        </mxCell>
        <mxCell id="lsTzPiZq1YOw1p8u2fON-15" value="selectare actiune" style="rhombus;whiteSpace=wrap;html=1;rounded=1;arcSize=14;strokeWidth=2;" vertex="1" parent="1">
          <mxGeometry x="460" y="280" width="80" height="80" as="geometry" />
        </mxCell>
        <mxCell id="lsTzPiZq1YOw1p8u2fON-18" value="switch" style="html=1;verticalAlign=bottom;endArrow=block;rounded=0;exitX=0.5;exitY=1;exitDx=0;exitDy=0;" edge="1" parent="1" source="lsTzPiZq1YOw1p8u2fON-15">
          <mxGeometry x="-0.3333" y="-30" width="80" relative="1" as="geometry">
            <mxPoint x="470" y="420" as="sourcePoint" />
            <mxPoint x="500" y="510" as="targetPoint" />
            <Array as="points">
              <mxPoint x="500" y="410" />
            </Array>
            <mxPoint as="offset" />
          </mxGeometry>
        </mxCell>
        <mxCell id="lsTzPiZq1YOw1p8u2fON-19" value="Case &quot;verificare&lt;br&gt;&amp;nbsp;sold&quot;" style="html=1;verticalAlign=bottom;endArrow=block;rounded=0;" edge="1" parent="1">
          <mxGeometry width="80" relative="1" as="geometry">
            <mxPoint x="500" y="390" as="sourcePoint" />
            <mxPoint x="580" y="390" as="targetPoint" />
            <mxPoint as="offset" />
          </mxGeometry>
        </mxCell>
        <mxCell id="lsTzPiZq1YOw1p8u2fON-34" value="" style="edgeStyle=none;rounded=0;orthogonalLoop=1;jettySize=auto;html=1;" edge="1" parent="1" source="lsTzPiZq1YOw1p8u2fON-20" target="lsTzPiZq1YOw1p8u2fON-33">
          <mxGeometry relative="1" as="geometry">
            <Array as="points">
              <mxPoint x="830" y="390" />
            </Array>
          </mxGeometry>
        </mxCell>
        <mxCell id="lsTzPiZq1YOw1p8u2fON-20" value="Afisare sold" style="rounded=1;whiteSpace=wrap;html=1;absoluteArcSize=1;arcSize=14;strokeWidth=2;" vertex="1" parent="1">
          <mxGeometry x="580" y="380" width="100" height="20" as="geometry" />
        </mxCell>
        <mxCell id="lsTzPiZq1YOw1p8u2fON-21" value="Case &quot;Retrage &lt;br&gt;bani&quot;" style="html=1;verticalAlign=bottom;endArrow=block;rounded=0;entryX=0;entryY=0.5;entryDx=0;entryDy=0;entryPerimeter=0;" edge="1" parent="1" target="lsTzPiZq1YOw1p8u2fON-25">
          <mxGeometry x="0.25" y="10" width="80" relative="1" as="geometry">
            <mxPoint x="500" y="440" as="sourcePoint" />
            <mxPoint x="560" y="440" as="targetPoint" />
            <mxPoint as="offset" />
          </mxGeometry>
        </mxCell>
        <mxCell id="lsTzPiZq1YOw1p8u2fON-26" style="edgeStyle=none;rounded=0;orthogonalLoop=1;jettySize=auto;html=1;entryX=1;entryY=0.5;entryDx=0;entryDy=0;" edge="1" parent="1" source="lsTzPiZq1YOw1p8u2fON-25" target="lsTzPiZq1YOw1p8u2fON-14">
          <mxGeometry relative="1" as="geometry">
            <Array as="points">
              <mxPoint x="710" y="220" />
            </Array>
          </mxGeometry>
        </mxCell>
        <mxCell id="lsTzPiZq1YOw1p8u2fON-27" value="No" style="edgeLabel;html=1;align=center;verticalAlign=middle;resizable=0;points=[];" vertex="1" connectable="0" parent="lsTzPiZq1YOw1p8u2fON-26">
          <mxGeometry x="-0.4023" y="-1" relative="1" as="geometry">
            <mxPoint as="offset" />
          </mxGeometry>
        </mxCell>
        <mxCell id="lsTzPiZq1YOw1p8u2fON-30" style="edgeStyle=none;rounded=0;orthogonalLoop=1;jettySize=auto;html=1;entryX=0;entryY=0.5;entryDx=0;entryDy=0;" edge="1" parent="1" source="lsTzPiZq1YOw1p8u2fON-25" target="lsTzPiZq1YOw1p8u2fON-33">
          <mxGeometry relative="1" as="geometry">
            <mxPoint x="800.0000000000057" y="575" as="targetPoint" />
            <Array as="points">
              <mxPoint x="713" y="620" />
            </Array>
          </mxGeometry>
        </mxCell>
        <mxCell id="lsTzPiZq1YOw1p8u2fON-31" value="Yes" style="edgeLabel;html=1;align=center;verticalAlign=middle;resizable=0;points=[];" vertex="1" connectable="0" parent="lsTzPiZq1YOw1p8u2fON-30">
          <mxGeometry x="-0.3775" y="-2" relative="1" as="geometry">
            <mxPoint as="offset" />
          </mxGeometry>
        </mxCell>
        <mxCell id="lsTzPiZq1YOw1p8u2fON-25" value="Bani suficienti" style="strokeWidth=2;html=1;shape=mxgraph.flowchart.decision;whiteSpace=wrap;" vertex="1" parent="1">
          <mxGeometry x="670" y="410" width="85" height="70" as="geometry" />
        </mxCell>
        <mxCell id="lsTzPiZq1YOw1p8u2fON-36" style="edgeStyle=none;rounded=0;orthogonalLoop=1;jettySize=auto;html=1;entryX=0.5;entryY=0;entryDx=0;entryDy=0;" edge="1" parent="1" source="lsTzPiZq1YOw1p8u2fON-33" target="lsTzPiZq1YOw1p8u2fON-35">
          <mxGeometry relative="1" as="geometry" />
        </mxCell>
        <mxCell id="lsTzPiZq1YOw1p8u2fON-33" value="Tiparire chitanta" style="whiteSpace=wrap;html=1;rounded=1;arcSize=14;strokeWidth=2;" vertex="1" parent="1">
          <mxGeometry x="770" y="590" width="120" height="60" as="geometry" />
        </mxCell>
        <mxCell id="lsTzPiZq1YOw1p8u2fON-35" value="" style="ellipse;html=1;shape=endState;fillColor=#000000;strokeColor=#ff0000;" vertex="1" parent="1">
          <mxGeometry x="815" y="730" width="30" height="30" as="geometry" />
        </mxCell>
        <mxCell id="lsTzPiZq1YOw1p8u2fON-38" value="" style="html=1;verticalAlign=bottom;endArrow=block;rounded=0;entryX=1;entryY=0.5;entryDx=0;entryDy=0;" edge="1" parent="1" target="lsTzPiZq1YOw1p8u2fON-39">
          <mxGeometry width="80" relative="1" as="geometry">
            <mxPoint x="710" y="620" as="sourcePoint" />
            <mxPoint x="680" y="690" as="targetPoint" />
          </mxGeometry>
        </mxCell>
        <mxCell id="lsTzPiZq1YOw1p8u2fON-41" style="edgeStyle=none;rounded=0;orthogonalLoop=1;jettySize=auto;html=1;entryX=0;entryY=0.5;entryDx=0;entryDy=0;" edge="1" parent="1" source="lsTzPiZq1YOw1p8u2fON-39" target="lsTzPiZq1YOw1p8u2fON-35">
          <mxGeometry relative="1" as="geometry">
            <Array as="points">
              <mxPoint x="600" y="745" />
            </Array>
          </mxGeometry>
        </mxCell>
        <mxCell id="lsTzPiZq1YOw1p8u2fON-39" value="Oferire bani" style="rounded=1;whiteSpace=wrap;html=1;absoluteArcSize=1;arcSize=14;strokeWidth=2;" vertex="1" parent="1">
          <mxGeometry x="550" y="595" width="100" height="50" as="geometry" />
        </mxCell>
        <mxCell id="lsTzPiZq1YOw1p8u2fON-45" value="" style="edgeStyle=none;rounded=0;orthogonalLoop=1;jettySize=auto;html=1;" edge="1" parent="1" source="lsTzPiZq1YOw1p8u2fON-42" target="lsTzPiZq1YOw1p8u2fON-46">
          <mxGeometry relative="1" as="geometry">
            <mxPoint x="500" y="610" as="targetPoint" />
          </mxGeometry>
        </mxCell>
        <mxCell id="lsTzPiZq1YOw1p8u2fON-42" value="Schimbare PIN" style="rounded=1;whiteSpace=wrap;html=1;absoluteArcSize=1;arcSize=14;strokeWidth=2;" vertex="1" parent="1">
          <mxGeometry x="450" y="510" width="100" height="30" as="geometry" />
        </mxCell>
        <mxCell id="lsTzPiZq1YOw1p8u2fON-47" style="edgeStyle=none;rounded=0;orthogonalLoop=1;jettySize=auto;html=1;entryX=0;entryY=1;entryDx=0;entryDy=0;" edge="1" parent="1" source="lsTzPiZq1YOw1p8u2fON-46" target="lsTzPiZq1YOw1p8u2fON-35">
          <mxGeometry relative="1" as="geometry">
            <Array as="points">
              <mxPoint x="500" y="756" />
            </Array>
          </mxGeometry>
        </mxCell>
        <mxCell id="lsTzPiZq1YOw1p8u2fON-46" value="Introducere PIN&lt;br&gt;nou" style="rounded=1;whiteSpace=wrap;html=1;absoluteArcSize=1;arcSize=14;strokeWidth=2;" vertex="1" parent="1">
          <mxGeometry x="450" y="560" width="100" height="40" as="geometry" />
        </mxCell>
      </root>
    </mxGraphModel>
  </diagram>
</mxfile>
